<svg width="525" height="115" viewBox="0 0 525 115" fill="none" xmlns="http://www.w3.org/2000/svg">
<path fill="black" d="M504.569 67.3908C504.569 67.3883 504.569 67.3867 504.569 67.3867C504.569 67.3851 504.569 67.384 504.569 67.384V52.08H524.403V22.632H504.569V0.920001L475.649 7.35734L475.652 67.7549C475.852 93.7679 497.027 114.801 523.089 114.801C523.533 114.801 523.961 114.748 524.403 114.735V82.0132C523.364 82.3336 522.273 82.5388 521.152 82.6304L521.069 82.6945V82.6345C520.673 82.6637 520.277 82.6945 519.875 82.6945C511.423 82.6945 504.569 75.844 504.569 67.3908V67.3908ZM442.396 52.0787H471.319V21.3813C457.813 24.916 446.985 34.9827 442.396 48.028V52.0787ZM413.473 112.287H442.393V22.624H413.473V112.287ZM380.268 112.288H409.143V22.6253H380.268V26.904C373.089 22.532 364.687 19.968 355.667 19.968C342.828 19.968 331.2 25.092 322.661 33.38C317.333 27.66 310.436 23.424 302.633 21.3813C299.229 20.4907 295.679 19.968 291.997 19.968C282.075 19.968 273.08 23.5587 265.895 29.3187C258.712 23.5587 249.716 19.968 239.795 19.968C236.113 19.968 232.565 20.4907 229.165 21.38V21.3827C229.167 21.3813 229.167 21.3813 229.167 21.3813V52.0787H200.247V112.287H229.156C229.156 112.287 229.156 61.94 229.156 61.936C229.156 56.4813 233.577 52.0587 239.031 52.0587C244.487 52.0587 248.908 56.4813 248.908 61.936V112.287H265.895H282.884V61.936C282.884 56.4813 287.305 52.0587 292.76 52.0587C298.213 52.0587 302.636 56.4813 302.636 61.936C302.636 61.94 302.636 112.287 302.636 112.287H331.545V108.155C338.617 112.349 346.845 114.801 355.667 114.801C364.687 114.801 373.089 112.237 380.268 107.865V112.288ZM370.972 67.384C370.972 75.8372 364.119 82.6883 355.667 82.6883C347.216 82.6883 340.364 75.8372 340.364 67.384C340.364 58.932 347.216 52.08 355.667 52.08C364.119 52.08 370.972 58.932 370.972 67.384Z"/>
<path fill="white" d="M229.168 52.0787V21.3813C215.663 24.916 204.835 34.984 200.247 48.028V52.0787H229.168ZM171.324 112.287H200.245V22.624H171.324V112.287ZM138.073 112.287H166.995V22.6253H138.073V26.8773C130.905 22.5213 122.519 19.9667 113.519 19.9667C100.652 19.9667 88.9984 25.1107 80.4557 33.4333C71.9188 25.112 60.2803 19.9667 47.4172 19.9667C21.2292 19.9667 0 41.1973 0 67.384C0 93.5721 21.2292 114.803 47.4172 114.803C60.2803 114.803 71.9265 109.663 80.4677 101.347C89.0088 109.661 100.657 114.803 113.519 114.803C122.519 114.803 130.905 112.248 138.073 107.892V112.287ZM66.1021 67.384C66.1021 73.0361 67.1427 78.432 68.9557 83.4575L58.7969 77.5919C55.9943 80.7148 51.9421 82.6883 47.4172 82.6883C38.9645 82.6883 32.1136 75.8361 32.1136 67.384C32.1136 58.9333 38.9645 52.0813 47.4172 52.0813C52.1312 52.0813 56.3437 54.216 59.1516 57.5667L68.6797 52.0653C67.036 56.8787 66.1021 62.016 66.1021 67.384V67.384ZM128.823 67.384C128.823 75.8361 121.972 82.6883 113.519 82.6883C105.066 82.6883 98.2156 75.8361 98.2156 67.384C98.2156 58.9333 105.066 52.0813 113.519 52.0813C121.972 52.0813 128.823 58.9333 128.823 67.384"/>
</svg>
