<svg width="230" height="46" viewBox="0 0 230 46" fill="none" xmlns="http://www.w3.org/2000/svg">
<path d="M131.727 8.51852C136.277 8.51852 139.887 9.89459 142.555 12.6467C145.268 15.3989 146.624 19.2213 146.624 24.114V45.4758H135.468V25.6211C135.468 23.2621 134.833 21.4492 133.564 20.1823C132.339 18.8718 130.633 18.2165 128.445 18.2165C126.258 18.2165 124.53 18.8718 123.261 20.1823C122.036 21.4492 121.423 23.2621 121.423 25.6211V45.4758H110.267V25.6211C110.267 23.2621 109.632 21.4492 108.363 20.1823C107.138 18.8718 105.432 18.2165 103.244 18.2165C101.057 18.2165 99.3287 18.8718 98.0599 20.1823C96.8348 21.4492 96.2223 23.2621 96.2223 25.6211V45.4758H85V15.8115L96.2223 8.91168V13.4986C97.3599 11.9696 98.8474 10.7683 100.685 9.89458C102.523 8.97721 104.601 8.51852 106.92 8.51852C109.676 8.51852 112.126 9.10826 114.27 10.2877C116.457 11.4672 118.164 13.1491 119.389 15.3333C120.658 13.3238 122.386 11.6857 124.573 10.4188C126.761 9.15195 129.145 8.51852 131.727 8.51852Z" fill="#FCC300"/>
<path d="M140.757 27.1282C140.757 23.3713 141.457 20.0731 142.857 17.2336C144.301 14.3941 146.248 12.2099 148.698 10.6809C151.148 9.15195 153.882 8.38746 156.901 8.38746C159.483 8.38746 161.736 8.91168 163.661 9.96011C165.63 11.0085 167.139 12.3846 168.189 14.0883V8.91168H179.411V45.4758H168.189V40.2991C167.095 42.0028 165.564 43.3789 163.595 44.4273C161.67 45.4758 159.417 46 156.836 46C153.86 46 151.148 45.2355 148.698 43.7066C146.248 42.1339 144.301 39.9278 142.857 37.0883C141.457 34.2051 140.757 30.8851 140.757 27.1282ZM168.189 27.1937C168.189 24.3979 167.402 22.1918 165.826 20.5755C164.295 18.9592 162.414 18.151 160.183 18.151C157.951 18.151 156.048 18.9592 154.473 20.5755C152.942 22.1481 152.176 24.3324 152.176 27.1282C152.176 29.924 152.942 32.1519 154.473 33.812C156.048 35.4283 157.951 36.2365 160.183 36.2365C162.414 36.2365 164.295 35.4283 165.826 33.812C167.402 32.1956 168.189 29.9896 168.189 27.1937Z" fill="#FCC300"/>
<path d="M194.535 15.0057C195.848 12.9962 197.489 11.4235 199.458 10.2877C201.426 9.10826 203.614 8.51852 206.02 8.51852V20.3789H202.936C200.136 20.3789 198.036 20.9905 196.636 22.2137C195.236 23.3932 194.535 25.49 194.535 28.5043V45.4758H183.313V8.91168H194.535V15.0057Z" fill="#FCC300"/>
<path d="M230 35.9744V45.4758H224.29C220.221 45.4758 217.049 44.4929 214.774 42.5271C212.499 40.5176 211.362 37.2631 211.362 32.7635V18.2165H206.899V8.91168H211.362V0H222.584V8.91168H229.934V18.2165H222.584V32.8946C222.584 33.9867 222.847 34.773 223.372 35.2536C223.897 35.7341 224.772 35.9744 225.997 35.9744H230Z" fill="#FCC300"/>
<path d="M0 27C0 23.1603 0.767658 19.806 2.30298 16.9373C3.88216 14.0685 6.05354 11.8618 8.81711 10.3171C11.6245 8.77236 14.8268 8 18.4238 8C23.0298 8 26.8681 9.21371 29.9387 11.6411C33.0532 14.0685 35.093 17.489 36.058 21.9024H24.0825C23.0736 19.0778 21.1216 17.6655 18.2264 17.6655C16.1647 17.6655 14.5197 18.482 13.2915 20.115C12.0632 21.7038 11.4491 23.9988 11.4491 27C11.4491 30.0012 12.0632 32.3182 13.2915 33.9512C14.5197 35.5401 16.1647 36.3345 18.2264 36.3345C21.1216 36.3345 23.0736 34.9222 24.0825 32.0976H36.058C35.093 36.4228 33.0532 39.8211 29.9387 42.2927C26.8242 44.7642 22.9859 46 18.4238 46C14.8268 46 11.6245 45.2276 8.81711 43.6829C6.05354 42.1382 3.88216 39.9315 2.30298 37.0627C0.767658 34.194 0 30.8397 0 27Z" fill="black"/>
<path d="M33.5885 26.9338C33.5885 23.1382 34.2903 19.806 35.6941 16.9373C37.1417 14.0685 39.0937 11.8618 41.5502 10.3171C44.0067 8.77236 46.7484 8 49.7751 8C52.3632 8 54.6223 8.52962 56.5524 9.58885C58.5264 10.6481 60.0398 12.0383 61.0926 13.7596V8.52962H72.3443V45.4704H61.0926V40.2404C59.9959 41.9617 58.4606 43.3519 56.4866 44.4112C54.5565 45.4704 52.2974 46 49.7093 46C46.7264 46 44.0067 45.2276 41.5502 43.6829C39.0937 42.0941 37.1417 39.8653 35.6941 36.9965C34.2903 34.0836 33.5885 30.7294 33.5885 26.9338ZM61.0926 27C61.0926 24.1754 60.303 21.9466 58.7238 20.3136C57.1885 18.6806 55.3023 17.8641 53.0651 17.8641C50.8279 17.8641 48.9197 18.6806 47.3405 20.3136C45.8052 21.9024 45.0376 24.1092 45.0376 26.9338C45.0376 29.7584 45.8052 32.0093 47.3405 33.6864C48.9197 35.3194 50.8279 36.1359 53.0651 36.1359C55.3023 36.1359 57.1885 35.3194 58.7238 33.6864C60.303 32.0534 61.0926 29.8246 61.0926 27Z" fill="black"/>
<path d="M85.4851 14.6864C86.8011 12.6562 88.4461 11.0674 90.4201 9.91986C92.3941 8.72823 94.5874 8.13241 97 8.13241V20.115H93.9074C91.1 20.115 88.9944 20.7329 87.5907 21.9686C86.187 23.1603 85.4851 25.2787 85.4851 28.324V45.4704H74.2334V8.52962H85.4851V14.6864Z" fill="black"/>
</svg>
