<svg width="178" height="174" viewBox="0 0 178 174" fill="none" xmlns="http://www.w3.org/2000/svg">
<g filter="url(#filter0_d_114_1850)">
<rect y="23" width="131" height="131" rx="8" fill="#FCC300"/>
<rect x="0.5" y="23.5" width="130" height="130" rx="7.5" stroke="#FFD134"/>
</g>
<path d="M74.0107 49C84.0466 49 91.8662 51.402 97.4695 56.2061C103.157 60.9273 106 67.6364 106 76.3333C106 85.0303 103.157 91.7808 97.4695 96.5849C91.8662 101.306 84.0466 103.667 74.0107 103.667H57.5771V131H36V49H74.0107ZM70.6236 87.6394C79.7395 87.6394 84.2975 83.8707 84.2975 76.3333C84.2975 68.796 79.7395 65.0273 70.6236 65.0273H57.5771V87.6394H70.6236Z" fill="white"/>
<defs>
<filter id="filter0_d_114_1850" x="0" y="3" width="171" height="171" filterUnits="userSpaceOnUse" color-interpolation-filters="sRGB">
<feFlood flood-opacity="0" result="BackgroundImageFix"/>
<feColorMatrix in="SourceAlpha" type="matrix" values="0 0 0 0 0 0 0 0 0 0 0 0 0 0 0 0 0 0 127 0" result="hardAlpha"/>
<feOffset dx="20"/>
<feGaussianBlur stdDeviation="10"/>
<feComposite in2="hardAlpha" operator="out"/>
<feColorMatrix type="matrix" values="0 0 0 0 0.929167 0 0 0 0 0.746145 0 0 0 0 0.120017 0 0 0 1 0"/>
<feBlend mode="normal" in2="BackgroundImageFix" result="effect1_dropShadow_114_1850"/>
<feBlend mode="normal" in="SourceGraphic" in2="effect1_dropShadow_114_1850" result="shape"/>
</filter>
</defs>
</svg>
