<svg width="301" height="73" viewBox="0 0 301 73" fill="none" xmlns="http://www.w3.org/2000/svg">
<g filter="url(#filter0_d_6_634)">
<rect x="4" width="64" height="65" rx="8" fill="#FCC300"/>
<rect x="4.5" y="0.5" width="63" height="64" rx="7.5" stroke="#FFD134"/>
</g>
<path d="M37.5849 9.84848C42.8679 9.84848 46.9841 11.1467 49.9338 13.7431C52.9275 16.2948 54.4243 19.9208 54.4243 24.6212C54.4243 29.3216 52.9275 32.97 49.9338 35.5665C46.9841 38.1181 42.8679 39.3939 37.5849 39.3939H28.9341V54.1667H17.5758V9.84848H37.5849ZM35.8019 30.7317C40.6006 30.7317 42.9999 28.6949 42.9999 24.6212C42.9999 20.5475 40.6006 18.5107 35.8019 18.5107H28.9341V30.7317H35.8019Z" fill="white"/>
<defs>
<filter id="filter0_d_6_634" x="0" y="0" width="72" height="73" filterUnits="userSpaceOnUse" color-interpolation-filters="sRGB">
<feFlood flood-opacity="0" result="BackgroundImageFix"/>
<feColorMatrix in="SourceAlpha" type="matrix" values="0 0 0 0 0 0 0 0 0 0 0 0 0 0 0 0 0 0 127 0" result="hardAlpha"/>
<feOffset dy="4"/>
<feGaussianBlur stdDeviation="2"/>
<feComposite in2="hardAlpha" operator="out"/>
<feColorMatrix type="matrix" values="0 0 0 0 0.988235 0 0 0 0 0.764706 0 0 0 0 0 0 0 0 0.2 0"/>
<feBlend mode="normal" in2="BackgroundImageFix" result="effect1_dropShadow_6_634"/>
<feBlend mode="normal" in="SourceGraphic" in2="effect1_dropShadow_6_634" result="shape"/>
</filter>
</defs>
</svg>
